<svg viewBox="0 0 18 15" xmlns="http://www.w3.org/2000/svg">
<path d="M9 14.7491C8.48907 14.7147 7.99291 14.5631 7.55 14.3061C7.01853 14.0265 6.50608 13.7122 6.016 13.3651C4.55799 12.3999 3.24941 11.226 2.132 9.8811C0.966081 8.52789 0.301517 6.81457 0.25 5.0291C0.302339 3.71344 0.873484 2.47203 1.83855 1.5763C2.80362 0.680562 4.0841 0.203385 5.4 0.2491C6.75433 0.277866 8.04476 0.830601 9 1.7911C9.9553 0.830689 11.2457 0.27797 12.6 0.2491C13.9159 0.203385 15.1964 0.680562 16.1614 1.5763C17.1265 2.47203 17.6977 3.71344 17.75 5.0291C17.6988 6.81446 17.0346 8.52779 15.869 9.8811C14.7513 11.2261 13.4423 12.3999 11.984 13.3651C11.4945 13.7126 10.9824 14.0269 10.451 14.3061C10.0083 14.5645 9.51151 14.7161 9 14.7491ZM5.4 1.7491C4.4819 1.70353 3.58301 2.02274 2.89928 2.63716C2.21556 3.25158 1.80245 4.11137 1.75 5.0291C1.805 6.47529 2.3542 7.85889 3.306 8.9491C4.33462 10.1761 5.535 11.2482 6.87 12.1321C7.30476 12.4405 7.75904 12.7204 8.23 12.9701C8.46694 13.1105 8.72813 13.2051 9 13.2491C9.27156 13.2052 9.53243 13.1105 9.769 12.9701C10.24 12.7204 10.6942 12.4405 11.129 12.1321C12.4643 11.2482 13.665 10.1761 14.694 8.9491C15.6458 7.85889 16.195 6.47529 16.25 5.0291C16.1973 4.11146 15.7841 3.25183 15.1004 2.63746C14.4168 2.0231 13.518 1.70379 12.6 1.7491C12.01 1.77751 11.4339 1.93767 10.9139 2.21782C10.3939 2.49798 9.94325 2.89102 9.595 3.3681C9.52507 3.45935 9.43507 3.53328 9.33198 3.58416C9.22889 3.63504 9.11546 3.6615 9.0005 3.6615C8.88554 3.6615 8.77211 3.63504 8.66902 3.58416C8.56593 3.53328 8.47593 3.45935 8.406 3.3681C8.05745 2.8911 7.60658 2.49813 7.08645 2.218C6.56631 1.93786 5.99009 1.77764 5.4 1.7491Z"/>
</svg>
