<svg viewBox="0 0 18 18" xmlns="http://www.w3.org/2000/svg">
<path d="M6.02853 0.115737C4.63557 -0.038579 3.22981 -0.038579 1.83686 0.115737C1.40197 0.16414 0.996202 0.357888 0.685324 0.665569C0.374445 0.97325 0.176687 1.37683 0.124109 1.81087C-0.0413697 3.22372 -0.0413697 4.65104 0.124109 6.06389C0.176899 6.49775 0.374752 6.9011 0.685611 7.20858C0.996471 7.51605 1.40213 7.70966 1.83686 7.75801C3.22981 7.91234 4.63557 7.91234 6.02853 7.75801C6.46326 7.70966 6.86891 7.51605 7.17977 7.20858C7.49063 6.9011 7.68849 6.49775 7.74128 6.06389C7.90676 4.65104 7.90676 3.22372 7.74128 1.81087C7.6887 1.37683 7.49094 0.97325 7.18006 0.665569C6.86918 0.357888 6.46341 0.16414 6.02853 0.115737Z" />
<path d="M6.02853 10.2427C4.63557 10.0884 3.22981 10.0884 1.83686 10.2427C1.40197 10.2911 0.996202 10.4848 0.685324 10.7925C0.374445 11.1002 0.176687 11.5038 0.124109 11.9378C-0.0413697 13.3507 -0.0413697 14.778 0.124109 16.1909C0.176899 16.6247 0.374752 17.0281 0.685611 17.3355C0.996471 17.643 1.40213 17.8366 1.83686 17.885C3.22981 18.0393 4.63557 18.0393 6.02853 17.885C6.46326 17.8366 6.86891 17.643 7.17977 17.3355C7.49063 17.0281 7.68849 16.6247 7.74128 16.1909C7.90677 14.778 7.90677 13.3507 7.74128 11.9378C7.6887 11.5038 7.49094 11.1002 7.18006 10.7925C6.86918 10.4848 6.46341 10.2911 6.02853 10.2427Z" />
<path d="M16.1633 0.115737C14.7703 -0.038579 13.3646 -0.038579 11.9716 0.115737C11.5367 0.16414 11.131 0.357888 10.8201 0.665569C10.5092 0.97325 10.3115 1.37683 10.2589 1.81087C10.0934 3.22372 10.0934 4.65104 10.2589 6.06389C10.3117 6.49775 10.5095 6.9011 10.8204 7.20858C11.1312 7.51605 11.5369 7.70966 11.9716 7.75801C13.3646 7.91234 14.7703 7.91234 16.1633 7.75801C16.598 7.70966 17.0037 7.51605 17.3145 7.20858C17.6254 6.9011 17.8233 6.49775 17.876 6.06389C18.0415 4.65104 18.0415 3.22372 17.876 1.81087C17.8235 1.37683 17.6257 0.97325 17.3148 0.665569C17.004 0.357888 16.5982 0.16414 16.1633 0.115737Z" />
<path d="M16.1633 10.2427C14.7704 10.0884 13.3646 10.0884 11.9716 10.2427C11.5368 10.2911 11.131 10.4848 10.8201 10.7925C10.5092 11.1002 10.3115 11.5038 10.2589 11.9378C10.0934 13.3507 10.0934 14.778 10.2589 16.1909C10.3117 16.6247 10.5095 17.0281 10.8204 17.3355C11.1313 17.643 11.5369 17.8366 11.9716 17.885C13.3646 18.0393 14.7704 18.0393 16.1633 17.885C16.598 17.8366 17.0037 17.643 17.3146 17.3355C17.6254 17.0281 17.8233 16.6247 17.8761 16.1909C18.0416 14.778 18.0416 13.3507 17.8761 11.9378C17.8235 11.5038 17.6257 11.1002 17.3148 10.7925C17.004 10.4848 16.5982 10.2911 16.1633 10.2427Z" />
</svg>
