<svg viewBox="0 0 6 10" xmlns="http://www.w3.org/2000/svg">
<path d="M0.21934 0.21934C0.359965 0.0788896 0.550589 0 0.74934 0C0.948091 0 1.13871 0.0788896 1.27934 0.21934L5.27934 4.21934C5.34904 4.28899 5.40432 4.37169 5.44204 4.46272C5.47976 4.55374 5.49918 4.65131 5.49918 4.74984C5.49918 4.84837 5.47976 4.94594 5.44204 5.03696C5.40432 5.12799 5.34904 5.21069 5.27934 5.28034L1.27934 9.28034C1.13782 9.41689 0.948336 9.4924 0.751689 9.4906C0.555041 9.4888 0.366968 9.40983 0.227977 9.27071C0.088986 9.13159 0.0101979 8.94344 0.00858244 8.74679C0.00696697 8.55014 0.0826533 8.36073 0.21934 8.21934L3.68934 4.74934L0.21934 1.27934C0.0788896 1.13871 0 0.948091 0 0.74934C0 0.550589 0.0788896 0.359965 0.21934 0.21934Z"/>
</svg>
