<svg viewBox="0 0 30 30" xmlns="http://www.w3.org/2000/svg">
<path fill-rule="evenodd" clip-rule="evenodd" d="M5.25 2.81445C3.23071 2.81445 1.59375 4.45141 1.59375 6.4707V23.5332C1.59375 25.5525 3.23071 27.1894 5.25 27.1894H22.3125C24.3318 27.1894 25.9687 25.5525 25.9687 23.5332V22.1064C27.3888 21.6045 28.4062 20.2502 28.4062 18.6582V16.2207C28.4062 14.6287 27.3888 13.2744 25.9687 12.7725V11.3457C25.9687 9.32641 24.3318 7.68945 22.3125 7.68945V6.4707C22.3125 4.45141 20.6755 2.81445 18.6562 2.81445H5.25ZM5.25 5.25195C4.5769 5.25195 4.03125 5.79761 4.03125 6.4707C4.03125 7.1438 4.5769 7.68945 5.25 7.68945H19.875V6.4707C19.875 5.79761 19.3293 5.25195 18.6562 5.25195H5.25ZM4.03125 9.9189V23.5332C4.03125 24.2063 4.5769 24.7519 5.25 24.7519H22.3125C22.9856 24.7519 23.5312 24.2063 23.5312 23.5332V22.3144H19.875C17.8557 22.3144 16.2187 20.6775 16.2187 18.6582V16.2207C16.2187 14.2014 17.8557 12.5645 19.875 12.5645H23.5312V11.3457C23.5312 10.6726 22.9856 10.127 22.3125 10.127H5.25C4.82266 10.127 4.41245 10.0536 4.03125 9.9189ZM19.875 15.002C19.2019 15.002 18.6562 15.5476 18.6562 16.2207V18.6582C18.6562 19.3313 19.2019 19.8769 19.875 19.8769H24.75C25.4231 19.8769 25.9687 19.3313 25.9687 18.6582V16.2207C25.9687 15.5476 25.4231 15.002 24.75 15.002H19.875Z"/>
</svg>
